<svg xmlns="http://www.w3.org/2000/svg" viewBox="0 0 64 64" role="img" aria-label="SOC Guardian shield">
  <defs>
    <linearGradient id="shieldGradient" x1="0%" y1="0%" x2="100%" y2="100%">
      <stop offset="0%" stop-color="#5ee7f2" />
      <stop offset="100%" stop-color="#8b5cf6" />
    </linearGradient>
  </defs>
  <rect width="64" height="64" rx="14" fill="#0b1220" />
  <path
    d="M32 8l18 6v14c0 11.6-6.7 21.8-18 28C20.7 49.8 14 39.6 14 28V14l18-6z"
    fill="url(#shieldGradient)"
  />
  <path
    d="M32 18l8 3v7.5c0 6.4-3.1 12-8 15.5-4.9-3.5-8-9.1-8-15.5V21l8-3z"
    fill="#0b1220"
    opacity="0.88"
  />
  <path
    d="M32 22a8 8 0 0 1 8 8c0 6.3-4.7 10.8-8 13.1-3.3-2.3-8-6.8-8-13.1a8 8 0 0 1 8-8zm0 4.5a3.5 3.5 0 0 0-3.5 3.5c0 1.9 1.4 3.7 3.5 5.6 2.1-1.9 3.5-3.7 3.5-5.6a3.5 3.5 0 0 0-3.5-3.5z"
    fill="#5ee7f2"
  />
</svg>
